<svg version="1.1" id="Layer_1" xmlns="http://www.w3.org/2000/svg" xmlns:xlink="http://www.w3.org/1999/xlink" x="0px" y="0px"
	 width="100%" viewBox="0 0 1600 1600" enable-background="new 0 0 1600 1600" xml:space="preserve">
<path fill="#000000" opacity="1.000000" stroke="none" 
	d="
M0.999998,883.000000 
	C1.000000,827.979126 1.000000,772.958191 1.401518,717.311401 
	C2.201427,713.111389 2.518730,709.526184 3.012474,705.965332 
	C4.975353,691.809448 6.606984,677.593018 9.089723,663.527527 
	C12.117110,646.376343 15.309402,629.215454 19.446980,612.307617 
	C26.462891,583.637573 34.131454,555.089844 45.083858,527.623718 
	C55.227562,502.185669 65.735992,476.876312 76.829010,451.840454 
	C82.612961,438.786621 89.673996,426.257202 96.748741,413.827026 
	C106.208244,397.206879 115.869576,380.677429 126.110382,364.531555 
	C143.579025,336.990112 162.756821,310.664276 184.343155,286.155212 
	C196.597229,272.241974 208.087402,257.553070 221.270187,244.584320 
	C241.831131,224.357208 263.400391,205.142441 284.824036,185.810837 
	C294.017456,177.515182 303.560638,169.510620 313.576782,162.244919 
	C330.282928,150.126328 347.185974,138.220001 364.582550,127.128418 
	C383.145325,115.293266 402.125519,104.051750 421.398743,93.412010 
	C435.708221,85.512505 450.610168,78.614670 465.550293,71.947594 
	C483.248352,64.049782 500.969025,56.020576 519.226074,49.601913 
	C544.154358,40.837841 569.451538,33.024940 594.870789,25.788639 
	C612.805969,20.682873 631.138916,16.883390 649.421448,13.118229 
	C663.368347,10.245989 677.472351,8.031546 691.585938,6.107644 
	C702.599243,4.606361 713.741638,4.070363 724.812805,2.966173 
	C729.559998,2.492705 734.272034,1.666136 739.000000,1.000000 
	C779.020874,1.000000 819.041809,1.000000 859.694946,1.406083 
	C868.487427,2.541354 876.656555,3.184930 884.805969,4.019717 
	C897.141052,5.283258 909.546631,6.162899 921.768188,8.152109 
	C936.729919,10.587303 951.633911,13.574386 966.381042,17.086159 
	C989.817505,22.667114 1013.274536,28.287815 1036.411743,34.969086 
	C1068.471069,44.226765 1099.621460,56.207729 1129.770996,70.495583 
	C1153.559692,81.769096 1177.314087,93.286064 1200.182617,106.280754 
	C1221.571045,118.434303 1241.965942,132.387558 1262.426147,146.103577 
	C1274.515381,154.207886 1286.139771,163.068024 1297.503540,172.174515 
	C1309.501953,181.789810 1321.185791,191.833755 1332.562866,202.179016 
	C1346.055054,214.447403 1359.478271,226.843140 1372.187622,239.907135 
	C1386.188477,254.298584 1399.509399,269.366180 1412.808594,284.420074 
	C1421.120972,293.829041 1429.415405,303.348999 1436.713379,313.538513 
	C1450.794678,333.199036 1464.712158,353.021271 1477.669678,373.429016 
	C1489.807007,392.545074 1500.992432,412.298584 1511.870361,432.169250 
	C1518.642090,444.539551 1524.371582,457.514679 1530.016724,470.459106 
	C1537.444092,487.489868 1545.051270,504.500488 1551.267456,521.986755 
	C1559.366333,544.769592 1566.658569,567.871033 1573.381714,591.100525 
	C1578.340942,608.235596 1582.039795,625.749451 1585.904053,643.182312 
	C1588.316162,654.064575 1590.304810,665.064392 1591.913330,676.094666 
	C1593.629883,687.865662 1594.860596,699.717224 1595.968384,711.564941 
	C1597.478516,727.716553 1598.654297,743.899414 1600.025879,760.064331 
	C1600.166870,761.725098 1600.666748,763.355469 1601.000000,765.000000 
	C1601.000000,788.354248 1601.000000,811.708435 1600.591553,835.698120 
	C1599.122314,851.080688 1598.255493,865.845276 1596.937622,880.569458 
	C1595.921021,891.927673 1594.685547,903.289490 1592.926270,914.552734 
	C1590.231201,931.808899 1587.738159,949.151184 1583.822876,966.149109 
	C1578.236694,990.401184 1572.441772,1014.693542 1564.891113,1038.380615 
	C1556.826660,1063.679443 1546.910767,1088.408936 1537.264648,1113.177246 
	C1526.929321,1139.714600 1514.592773,1165.374023 1499.927246,1189.790771 
	C1485.103882,1214.469849 1470.293213,1239.214600 1454.105347,1262.996826 
	C1441.973511,1280.820435 1427.985474,1297.426636 1414.232300,1314.086548 
	C1402.328247,1328.506470 1390.346680,1343.005981 1377.047974,1356.097656 
	C1356.729736,1376.099854 1335.385132,1395.072388 1314.196289,1414.171509 
	C1304.997070,1422.463257 1295.485718,1430.516724 1285.439697,1437.737305 
	C1266.714844,1451.196289 1247.835571,1464.502197 1228.382935,1476.868896 
	C1209.950317,1488.586792 1191.137207,1499.875122 1171.695679,1509.792358 
	C1149.274292,1521.229736 1126.120605,1531.277832 1103.029663,1541.343628 
	C1077.302368,1552.558838 1050.803467,1561.611328 1023.735107,1569.208984 
	C989.700684,1578.761963 955.462891,1587.135864 920.425598,1591.991333 
	C905.114197,1594.113281 889.805969,1596.357910 874.430664,1597.887695 
	C862.150024,1599.109619 849.769104,1599.316895 837.436401,1600.037598 
	C836.608337,1600.086060 835.811401,1600.666870 835.000000,1601.000000 
	C811.312439,1601.000000 787.624878,1601.000000 763.301880,1600.591553 
	C747.920410,1599.122314 733.160095,1598.225098 718.432434,1596.950806 
	C705.749756,1595.853149 693.021423,1594.847412 680.463562,1592.854492 
	C665.168762,1590.427124 649.925659,1587.458496 634.849548,1583.917969 
	C610.135559,1578.114014 585.278625,1572.625854 561.033569,1565.202515 
	C537.951965,1558.135498 515.301575,1549.428589 492.968597,1540.213867 
	C471.053955,1531.171753 449.257050,1521.559570 428.356262,1510.419434 
	C403.695862,1497.275391 379.502472,1483.062744 356.130371,1467.750610 
	C334.638824,1453.670654 314.328644,1437.750000 293.851013,1422.175903 
	C283.966675,1414.658569 274.664490,1406.324097 265.506714,1397.915283 
	C252.073013,1385.580444 238.601593,1373.239746 225.890671,1360.177124 
	C212.120712,1346.026245 198.989914,1331.232056 185.987656,1316.362305 
	C176.331833,1305.319580 166.777237,1294.107300 158.160995,1282.255615 
	C145.556580,1264.918457 133.330338,1247.259033 121.876534,1229.146484 
	C110.633621,1211.367554 100.105652,1193.096069 90.072174,1174.602051 
	C73.903145,1144.798950 59.889481,1113.941284 48.602749,1081.953247 
	C40.289738,1058.392944 31.724464,1034.826050 25.274977,1010.725830 
	C15.081903,972.636780 6.396089,934.133789 2.952982,894.681885 
	C2.610793,890.760986 1.665420,886.892700 0.999998,883.000000 
M1207.567505,1376.701782 
	C1207.927002,1376.090088 1208.286499,1375.478394 1208.779419,1373.956299 
	C1208.783813,1369.122803 1208.255859,1364.215454 1208.914429,1359.472778 
	C1209.967163,1351.889282 1206.196045,1347.928223 1200.211304,1344.375732 
	C1138.970825,1308.024780 1077.816528,1271.528442 1016.648193,1235.056152 
	C853.973755,1138.059814 691.303650,1041.056152 528.632996,944.053345 
	C465.177429,906.213989 401.725494,868.368591 338.270569,830.528137 
	C323.493500,821.716125 308.711029,812.913147 293.622650,803.922363 
	C295.832611,802.641418 297.671448,801.605896 299.481415,800.522217 
	C576.107239,634.900696 852.730530,469.274841 1129.355713,303.652100 
	C1153.359131,289.280579 1177.338379,274.867401 1201.417480,260.623627 
	C1205.884766,257.981018 1208.379028,254.881027 1207.788330,249.395645 
	C1207.344849,245.277313 1207.351562,241.035965 1207.787109,236.915924 
	C1208.359619,231.501389 1205.734741,228.641907 1201.223633,226.589478 
	C1193.532104,223.090012 1185.584229,220.823822 1176.888062,220.346069 
	C1176.256836,220.309784 1175.625488,220.273514 1174.194336,219.905960 
	C1166.367432,219.813583 1158.442383,218.917389 1150.741577,219.857773 
	C1143.228760,220.775192 1135.022949,222.017166 1128.699341,225.773163 
	C1037.790283,279.768951 947.158630,334.231293 856.440125,388.548004 
	C636.513428,520.226685 416.573975,651.884155 196.674850,783.608948 
	C194.469589,784.929993 192.741989,787.048462 189.983276,789.006958 
	C189.782104,796.542358 189.569855,804.077637 189.434143,811.614197 
	C189.430130,811.836731 190.231491,812.073792 190.856201,812.958069 
	C193.624100,815.275146 196.138214,818.016479 199.197495,819.846436 
	C257.576172,854.767090 316.020203,889.578430 374.448242,924.416565 
	C428.160522,956.442993 481.868225,988.477112 535.581055,1020.502625 
	C589.151245,1052.442871 642.728333,1084.371582 696.296997,1116.314453 
	C769.016602,1159.677002 841.720459,1203.066040 914.450867,1246.410522 
	C988.038086,1290.265625 1061.594238,1334.173706 1135.365112,1377.717896 
	C1140.731323,1380.885376 1147.662842,1382.304321 1153.990479,1382.740601 
	C1165.231689,1383.515625 1176.567749,1382.892578 1187.864136,1382.895874 
	C1194.860229,1382.897827 1201.271484,1381.069824 1207.567505,1376.701782 
z"/>
<path fill="#FFFFFF" opacity="1.000000" stroke="none" 
	d="
M835.468628,1601.000000 
	C835.811401,1600.666870 836.608337,1600.086060 837.436401,1600.037598 
	C849.769104,1599.316895 862.150024,1599.109619 874.430664,1597.887695 
	C889.805969,1596.357910 905.114197,1594.113281 920.425598,1591.991333 
	C955.462891,1587.135864 989.700684,1578.761963 1023.735107,1569.208984 
	C1050.803467,1561.611328 1077.302368,1552.558838 1103.029663,1541.343628 
	C1126.120605,1531.277832 1149.274292,1521.229736 1171.695679,1509.792358 
	C1191.137207,1499.875122 1209.950317,1488.586792 1228.382935,1476.868896 
	C1247.835571,1464.502197 1266.714844,1451.196289 1285.439697,1437.737305 
	C1295.485718,1430.516724 1304.997070,1422.463257 1314.196289,1414.171509 
	C1335.385132,1395.072388 1356.729736,1376.099854 1377.047974,1356.097656 
	C1390.346680,1343.005981 1402.328247,1328.506470 1414.232300,1314.086548 
	C1427.985474,1297.426636 1441.973511,1280.820435 1454.105347,1262.996826 
	C1470.293213,1239.214600 1485.103882,1214.469849 1499.927246,1189.790771 
	C1514.592773,1165.374023 1526.929321,1139.714600 1537.264648,1113.177246 
	C1546.910767,1088.408936 1556.826660,1063.679443 1564.891113,1038.380615 
	C1572.441772,1014.693542 1578.236694,990.401184 1583.822876,966.149109 
	C1587.738159,949.151184 1590.231201,931.808899 1592.926270,914.552734 
	C1594.685547,903.289490 1595.921021,891.927673 1596.937622,880.569458 
	C1598.255493,865.845276 1599.122314,851.080688 1600.591553,836.166748 
	C1601.000000,1090.927124 1601.000000,1345.854370 1601.000000,1601.000000 
	C1345.979126,1601.000000 1090.958252,1601.000000 835.468628,1601.000000 
z"/>
<path fill="#FFFFFF" opacity="1.000000" stroke="none" 
	d="
M1601.000000,764.531372 
	C1600.666748,763.355469 1600.166870,761.725098 1600.025879,760.064331 
	C1598.654297,743.899414 1597.478516,727.716553 1595.968384,711.564941 
	C1594.860596,699.717224 1593.629883,687.865662 1591.913330,676.094666 
	C1590.304810,665.064392 1588.316162,654.064575 1585.904053,643.182312 
	C1582.039795,625.749451 1578.340942,608.235596 1573.381714,591.100525 
	C1566.658569,567.871033 1559.366333,544.769592 1551.267456,521.986755 
	C1545.051270,504.500488 1537.444092,487.489868 1530.016724,470.459106 
	C1524.371582,457.514679 1518.642090,444.539551 1511.870361,432.169250 
	C1500.992432,412.298584 1489.807007,392.545074 1477.669678,373.429016 
	C1464.712158,353.021271 1450.794678,333.199036 1436.713379,313.538513 
	C1429.415405,303.348999 1421.120972,293.829041 1412.808594,284.420074 
	C1399.509399,269.366180 1386.188477,254.298584 1372.187622,239.907135 
	C1359.478271,226.843140 1346.055054,214.447403 1332.562866,202.179016 
	C1321.185791,191.833755 1309.501953,181.789810 1297.503540,172.174515 
	C1286.139771,163.068024 1274.515381,154.207886 1262.426147,146.103577 
	C1241.965942,132.387558 1221.571045,118.434303 1200.182617,106.280754 
	C1177.314087,93.286064 1153.559692,81.769096 1129.770996,70.495583 
	C1099.621460,56.207729 1068.471069,44.226765 1036.411743,34.969086 
	C1013.274536,28.287815 989.817505,22.667114 966.381042,17.086159 
	C951.633911,13.574386 936.729919,10.587303 921.768188,8.152109 
	C909.546631,6.162899 897.141052,5.283258 884.805969,4.019717 
	C876.656555,3.184930 868.487427,2.541354 860.163574,1.406083 
	C1106.928223,1.000000 1353.856445,1.000000 1601.000000,1.000000 
	C1601.000000,255.354187 1601.000000,509.708435 1601.000000,764.531372 
z"/>
<path fill="#FFFFFF" opacity="1.000000" stroke="none" 
	d="
M0.999998,883.468628 
	C1.665420,886.892700 2.610793,890.760986 2.952982,894.681885 
	C6.396089,934.133789 15.081903,972.636780 25.274977,1010.725830 
	C31.724464,1034.826050 40.289738,1058.392944 48.602749,1081.953247 
	C59.889481,1113.941284 73.903145,1144.798950 90.072174,1174.602051 
	C100.105652,1193.096069 110.633621,1211.367554 121.876534,1229.146484 
	C133.330338,1247.259033 145.556580,1264.918457 158.160995,1282.255615 
	C166.777237,1294.107300 176.331833,1305.319580 185.987656,1316.362305 
	C198.989914,1331.232056 212.120712,1346.026245 225.890671,1360.177124 
	C238.601593,1373.239746 252.073013,1385.580444 265.506714,1397.915283 
	C274.664490,1406.324097 283.966675,1414.658569 293.851013,1422.175903 
	C314.328644,1437.750000 334.638824,1453.670654 356.130371,1467.750610 
	C379.502472,1483.062744 403.695862,1497.275391 428.356262,1510.419434 
	C449.257050,1521.559570 471.053955,1531.171753 492.968597,1540.213867 
	C515.301575,1549.428589 537.951965,1558.135498 561.033569,1565.202515 
	C585.278625,1572.625854 610.135559,1578.114014 634.849548,1583.917969 
	C649.925659,1587.458496 665.168762,1590.427124 680.463562,1592.854492 
	C693.021423,1594.847412 705.749756,1595.853149 718.432434,1596.950806 
	C733.160095,1598.225098 747.920410,1599.122314 762.833252,1600.591553 
	C509.075073,1601.000000 255.150131,1601.000000 1.000000,1601.000000 
	C1.000000,1361.979126 1.000000,1122.958252 0.999998,883.468628 
z"/>
<path fill="#FFFFFF" opacity="1.000000" stroke="none" 
	d="
M738.531372,1.000000 
	C734.272034,1.666136 729.559998,2.492705 724.812805,2.966173 
	C713.741638,4.070363 702.599243,4.606361 691.585938,6.107644 
	C677.472351,8.031546 663.368347,10.245989 649.421448,13.118229 
	C631.138916,16.883390 612.805969,20.682873 594.870789,25.788639 
	C569.451538,33.024940 544.154358,40.837841 519.226074,49.601913 
	C500.969025,56.020576 483.248352,64.049782 465.550293,71.947594 
	C450.610168,78.614670 435.708221,85.512505 421.398743,93.412010 
	C402.125519,104.051750 383.145325,115.293266 364.582550,127.128418 
	C347.185974,138.220001 330.282928,150.126328 313.576782,162.244919 
	C303.560638,169.510620 294.017456,177.515182 284.824036,185.810837 
	C263.400391,205.142441 241.831131,224.357208 221.270187,244.584320 
	C208.087402,257.553070 196.597229,272.241974 184.343155,286.155212 
	C162.756821,310.664276 143.579025,336.990112 126.110382,364.531555 
	C115.869576,380.677429 106.208244,397.206879 96.748741,413.827026 
	C89.673996,426.257202 82.612961,438.786621 76.829010,451.840454 
	C65.735992,476.876312 55.227562,502.185669 45.083858,527.623718 
	C34.131454,555.089844 26.462891,583.637573 19.446980,612.307617 
	C15.309402,629.215454 12.117110,646.376343 9.089723,663.527527 
	C6.606984,677.593018 4.975353,691.809448 3.012474,705.965332 
	C2.518730,709.526184 2.201427,713.111389 1.401518,716.842712 
	C1.000000,478.405121 1.000000,239.810257 1.000000,1.000000 
	C246.687515,1.000000 492.375092,1.000000 738.531372,1.000000 
z"/>
<path fill="#FEC43D" opacity="1.000000" stroke="none" 
	d="
M190.791382,788.794617 
	C192.741989,787.048462 194.469589,784.929993 196.674850,783.608948 
	C416.573975,651.884155 636.513428,520.226685 856.440125,388.548004 
	C947.158630,334.231293 1037.790283,279.768951 1128.699341,225.773163 
	C1135.022949,222.017166 1143.228760,220.775192 1150.741577,219.857773 
	C1158.442383,218.917389 1166.367432,219.813583 1174.718750,220.363083 
	C1175.851196,220.846207 1176.459106,220.872223 1177.067139,220.898224 
	C1185.584229,220.823822 1193.532104,223.090012 1201.223633,226.589478 
	C1205.734741,228.641907 1208.359619,231.501389 1207.787109,236.915924 
	C1207.351562,241.035965 1207.344849,245.277313 1207.788330,249.395645 
	C1208.379028,254.881027 1205.884766,257.981018 1201.417480,260.623627 
	C1177.338379,274.867401 1153.359131,289.280579 1129.355713,303.652100 
	C852.730530,469.274841 576.107239,634.900696 299.481415,800.522217 
	C297.671448,801.605896 295.832611,802.641418 293.622650,803.922363 
	C308.711029,812.913147 323.493500,821.716125 338.270569,830.528137 
	C401.725494,868.368591 465.177429,906.213989 528.632996,944.053345 
	C691.303650,1041.056152 853.973755,1138.059814 1016.648193,1235.056152 
	C1077.816528,1271.528442 1138.970825,1308.024780 1200.211304,1344.375732 
	C1206.196045,1347.928223 1209.967163,1351.889282 1208.914429,1359.472778 
	C1208.255859,1364.215454 1208.783813,1369.122803 1208.416138,1374.482422 
	C1207.705078,1375.677124 1207.357300,1376.345459 1207.009644,1377.013916 
	C1201.271484,1381.069824 1194.860229,1382.897827 1187.864136,1382.895874 
	C1176.567749,1382.892578 1165.231689,1383.515625 1153.990479,1382.740601 
	C1147.662842,1382.304321 1140.731323,1380.885376 1135.365112,1377.717896 
	C1061.594238,1334.173706 988.038086,1290.265625 914.450867,1246.410522 
	C841.720459,1203.066040 769.016602,1159.677002 696.296997,1116.314453 
	C642.728333,1084.371582 589.151245,1052.442871 535.581055,1020.502625 
	C481.868225,988.477112 428.160522,956.442993 374.448242,924.416565 
	C316.020203,889.578430 257.576172,854.767090 199.197495,819.846436 
	C196.138214,818.016479 193.624100,815.275146 190.901764,812.158325 
	C190.895340,803.837280 190.843353,796.315979 190.791382,788.794617 
z"/>
<path fill="#967324" opacity="1.000000" stroke="none" 
	d="
M190.387329,788.900757 
	C190.843353,796.315979 190.895340,803.837280 190.802338,811.831360 
	C190.231491,812.073792 189.430130,811.836731 189.434143,811.614197 
	C189.569855,804.077637 189.782104,796.542358 190.387329,788.900757 
z"/>
<path fill="#6E551A" opacity="1.000000" stroke="none" 
	d="
M1176.977539,220.622147 
	C1176.459106,220.872223 1175.851196,220.846207 1175.118652,220.528717 
	C1175.625488,220.273514 1176.256836,220.309784 1176.977539,220.622147 
z"/>
<path fill="#AE872A" opacity="1.000000" stroke="none" 
	d="
M1207.288574,1376.857910 
	C1207.357300,1376.345459 1207.705078,1375.677124 1208.349365,1374.937744 
	C1208.286499,1375.478394 1207.927002,1376.090088 1207.288574,1376.857910 
z"/>
</svg>