<svg version="1.1" id="Layer_1" xmlns="http://www.w3.org/2000/svg" xmlns:xlink="http://www.w3.org/1999/xlink" x="0px" y="0px"
	 width="100%" viewBox="0 0 1600 1600" enable-background="new 0 0 1600 1600" xml:space="preserve">
<path fill="#010100" opacity="1.000000" stroke="none" 
	d="
M1039.765137,1361.269531 
	C1008.478638,1342.368164 977.514465,1323.640137 946.420837,1305.129517 
	C915.902283,1286.961182 885.195862,1269.108398 854.678223,1250.938721 
	C831.594360,1237.195068 808.730774,1223.082031 785.672485,1209.295166 
	C761.937500,1195.103271 738.048340,1181.169189 714.294067,1167.009399 
	C687.777649,1151.203125 661.361877,1135.228027 634.855774,1119.404297 
	C613.319092,1106.547241 591.689331,1093.846069 570.145874,1081.000000 
	C552.055237,1070.213013 534.061584,1059.263306 515.966309,1048.484009 
	C497.176453,1037.291016 478.300201,1026.243164 459.491272,1015.082153 
	C442.210754,1004.827942 424.965668,994.513977 407.712158,984.214355 
	C391.145233,974.324524 374.579987,964.431763 358.027649,954.517578 
	C338.025482,942.537109 318.065735,930.485413 298.035217,918.552612 
	C279.246460,907.359497 260.383698,896.290527 241.564163,885.148926 
	C226.072861,875.977722 210.542938,866.869934 195.131424,857.566284 
	C182.326797,849.836304 169.264160,842.436035 157.070068,833.822021 
	C146.563232,826.399841 139.818848,816.337402 138.805695,802.505676 
	C137.341599,782.517883 147.346542,769.700256 163.026535,760.057434 
	C181.372116,748.775269 200.018890,737.983948 218.478653,726.885925 
	C243.015457,712.134460 267.473206,697.251404 292.011230,682.501892 
	C312.684753,670.075317 333.435883,657.777893 354.131927,645.388611 
	C380.757843,629.449341 407.350342,613.454285 433.981049,597.523071 
	C454.538544,585.224915 475.152496,573.021240 495.705414,560.715515 
	C520.816895,545.680542 545.882446,530.568848 570.983582,515.516602 
	C591.811829,503.026611 612.674011,490.593262 633.500061,478.099701 
	C649.353394,468.589233 665.143921,458.973877 681.016113,449.495178 
	C700.897461,437.622314 720.869263,425.900848 740.736877,414.005219 
	C763.223022,400.541718 785.610535,386.913574 808.091125,373.440704 
	C824.506348,363.602905 841.030823,353.947571 857.455688,344.125793 
	C878.291016,331.666656 899.063232,319.102081 919.884521,306.619415 
	C937.262024,296.201355 954.680847,285.852234 972.063599,275.442993 
	C995.377075,261.482239 1018.664185,247.477493 1041.979980,233.520676 
	C1062.676025,221.131989 1083.414917,208.814728 1104.099976,196.407639 
	C1125.060059,183.835571 1145.943726,171.135696 1166.923828,158.597183 
	C1184.722168,147.960159 1202.661133,137.558151 1220.446167,126.898987 
	C1243.348267,113.172935 1265.982544,98.990021 1289.076416,85.597466 
	C1302.480469,77.824219 1316.677734,72.247147 1332.607788,70.747238 
	C1350.579834,69.055069 1367.686523,71.684807 1384.065796,78.220734 
	C1397.932129,83.753906 1408.427368,96.270454 1410.159790,110.717850 
	C1412.640625,131.404709 1402.349976,144.828049 1386.302979,154.867676 
	C1365.045776,168.167007 1343.327026,180.727921 1321.828735,193.643082 
	C1299.223877,207.223114 1276.661865,220.874100 1254.050171,234.442642 
	C1235.021973,245.860809 1215.938721,257.187134 1196.899292,268.586548 
	C1171.929565,283.536652 1146.983765,298.527069 1122.018311,313.484314 
	C1101.185059,325.965973 1080.326660,338.406128 1059.500488,350.899750 
	C1043.646973,360.410248 1027.856445,370.025665 1011.984192,379.504486 
	C992.102905,391.377502 972.131226,403.099182 952.263611,414.994781 
	C929.777466,428.458221 907.389771,442.086090 884.909180,455.558899 
	C868.493958,465.396698 851.969543,475.052155 835.544617,484.873871 
	C814.709290,497.332977 793.937134,509.897522 773.115845,522.380188 
	C755.738403,532.798279 738.319702,543.147400 720.936951,553.556641 
	C697.623474,567.517273 674.332336,581.515137 651.021790,595.480713 
	C630.188538,607.962097 609.331055,620.403137 588.504456,632.895630 
	C569.341248,644.390503 550.237000,655.984009 531.047546,667.434814 
	C513.241638,678.060120 495.305115,688.466858 477.520355,699.127136 
	C452.964264,713.846130 428.529907,728.768250 403.980560,743.498596 
	C384.262207,755.330200 364.431152,766.973816 344.687775,778.763916 
	C334.060760,785.110107 323.470978,791.521057 312.947784,798.037537 
	C307.838196,801.201477 307.449280,802.846436 312.130981,806.406311 
	C317.863464,810.765137 324.239197,814.296326 330.429657,818.031372 
	C357.283081,834.233276 384.145813,850.420044 411.053436,866.531677 
	C430.782928,878.345276 450.604218,890.005432 470.353943,901.785400 
	C491.893280,914.632874 513.373840,927.578918 534.923706,940.408630 
	C553.715454,951.596130 572.581848,962.658081 591.389526,973.818970 
	C608.670715,984.074097 625.919556,994.383789 643.179199,1004.675232 
	C662.240112,1016.040588 681.295105,1027.415771 700.356384,1038.780396 
	C717.616821,1049.071289 734.884827,1059.349365 752.144592,1069.641235 
	C768.573181,1079.437256 785.014038,1089.212891 801.415771,1099.053711 
	C820.037903,1110.226440 838.581543,1121.530396 857.234192,1132.651733 
	C879.331726,1145.827148 901.543762,1158.810425 923.643066,1171.983032 
	C950.158203,1187.787598 976.589478,1203.732788 1003.089478,1219.562866 
	C1022.831604,1231.355713 1042.642334,1243.033569 1062.391357,1254.814819 
	C1083.929688,1267.663330 1105.407837,1280.613037 1126.957397,1293.442871 
	C1147.406982,1305.618042 1167.919189,1317.688110 1188.395996,1329.817871 
	C1203.885010,1338.992920 1219.386597,1348.147339 1234.836548,1357.387817 
	C1251.260620,1367.211426 1267.619751,1377.143555 1284.026855,1386.995728 
	C1304.430664,1399.247925 1324.837524,1411.495361 1345.275269,1423.690796 
	C1359.492065,1432.174194 1373.889648,1440.362061 1387.970703,1449.063354 
	C1399.576416,1456.235229 1408.778564,1465.514038 1411.303589,1479.744385 
	C1413.289062,1490.933228 1411.637207,1501.348389 1404.816162,1510.669067 
	C1396.928101,1521.447632 1385.376221,1526.059814 1372.927246,1527.778564 
	C1362.664795,1529.195557 1352.087891,1529.440918 1341.732422,1528.825073 
	C1324.899170,1527.823730 1309.400024,1521.745117 1294.917114,1513.341431 
	C1278.231567,1503.659668 1261.767456,1493.596191 1245.223755,1483.670654 
	C1218.471802,1467.620361 1191.764282,1451.495483 1164.979248,1435.500366 
	C1144.545288,1423.298096 1124.000366,1411.281128 1103.541992,1399.119385 
	C1087.788940,1389.754761 1072.110229,1380.265259 1056.363403,1370.890015 
	C1050.973755,1367.681030 1045.478027,1364.650269 1039.765137,1361.269531 
M935.091309,332.641235 
	C793.175232,417.611633 651.261658,502.586182 509.342224,587.550964 
	C396.699524,654.988342 284.055054,722.422791 171.394699,789.830627 
	C160.265869,796.489258 160.228500,801.816833 171.516113,808.544556 
	C261.317749,862.068848 351.128265,915.578247 440.930695,969.101196 
	C496.314758,1002.110535 551.690857,1035.133179 607.067810,1068.154541 
	C641.597839,1088.744873 676.120239,1109.348145 710.650513,1129.938232 
	C802.414185,1184.656128 894.180603,1239.369385 985.945129,1294.085815 
	C1020.618958,1314.760986 1055.292236,1335.437378 1089.962891,1356.117676 
	C1165.327148,1401.071411 1240.708984,1445.995483 1316.029663,1491.021973 
	C1325.877075,1496.908813 1336.477295,1499.756592 1347.784790,1499.922607 
	C1354.362793,1500.019043 1361.011475,1499.759033 1367.517334,1498.858032 
	C1372.578613,1498.157104 1377.743530,1496.811401 1382.361816,1494.671753 
	C1387.615601,1492.237915 1388.300415,1486.787354 1384.371948,1482.435303 
	C1382.634888,1480.510986 1380.225342,1479.117065 1377.954346,1477.762085 
	C1302.154663,1432.541748 1226.334961,1387.354736 1150.517456,1342.164185 
	C1110.243530,1318.159058 1069.963379,1294.164673 1029.694702,1270.150757 
	C853.634155,1165.159180 677.576843,1060.162109 501.518005,955.167603 
	C431.687866,913.523682 361.859894,871.876282 292.023468,830.242981 
	C276.683960,821.098267 261.312531,812.007202 245.717010,802.749695 
	C247.783722,801.597717 249.530548,800.684692 251.218948,799.674194 
	C408.414062,705.580872 565.607727,611.485168 722.794983,517.378784 
	C914.531616,402.588013 1106.260254,287.783966 1297.998657,172.996307 
	C1325.121338,156.758820 1352.276489,140.575256 1379.426880,124.384178 
	C1382.831787,122.353714 1385.546509,120.310844 1385.121094,115.469513 
	C1384.747559,111.217705 1381.936035,109.948311 1378.981079,108.620522 
	C1374.544556,106.627129 1370.102295,104.446747 1365.432129,103.227829 
	C1360.401855,101.914955 1355.093872,101.695915 1349.928955,100.863953 
	C1336.496460,98.700279 1323.450928,100.154236 1311.767090,107.134361 
	C1186.347412,182.062134 1061.031006,257.162994 935.091309,332.641235 
z"/>
<path fill="#FDC33D" opacity="1.000000" stroke="none" 
	d="
M935.388794,332.428833 
	C1061.031006,257.162994 1186.347412,182.062134 1311.767090,107.134361 
	C1323.450928,100.154236 1336.496460,98.700279 1349.928955,100.863953 
	C1355.093872,101.695915 1360.401855,101.914955 1365.432129,103.227829 
	C1370.102295,104.446747 1374.544556,106.627129 1378.981079,108.620522 
	C1381.936035,109.948311 1384.747559,111.217705 1385.121094,115.469513 
	C1385.546509,120.310844 1382.831787,122.353714 1379.426880,124.384178 
	C1352.276489,140.575256 1325.121338,156.758820 1297.998657,172.996307 
	C1106.260254,287.783966 914.531616,402.588013 722.794983,517.378784 
	C565.607727,611.485168 408.414062,705.580872 251.218948,799.674194 
	C249.530548,800.684692 247.783722,801.597717 245.717010,802.749695 
	C261.312531,812.007202 276.683960,821.098267 292.023468,830.242981 
	C361.859894,871.876282 431.687866,913.523682 501.518005,955.167603 
	C677.576843,1060.162109 853.634155,1165.159180 1029.694702,1270.150757 
	C1069.963379,1294.164673 1110.243530,1318.159058 1150.517456,1342.164185 
	C1226.334961,1387.354736 1302.154663,1432.541748 1377.954346,1477.762085 
	C1380.225342,1479.117065 1382.634888,1480.510986 1384.371948,1482.435303 
	C1388.300415,1486.787354 1387.615601,1492.237915 1382.361816,1494.671753 
	C1377.743530,1496.811401 1372.578613,1498.157104 1367.517334,1498.858032 
	C1361.011475,1499.759033 1354.362793,1500.019043 1347.784790,1499.922607 
	C1336.477295,1499.756592 1325.877075,1496.908813 1316.029663,1491.021973 
	C1240.708984,1445.995483 1165.327148,1401.071411 1089.962891,1356.117676 
	C1055.292236,1335.437378 1020.618958,1314.760986 985.945129,1294.085815 
	C894.180603,1239.369385 802.414185,1184.656128 710.650513,1129.938232 
	C676.120239,1109.348145 641.597839,1088.744873 607.067810,1068.154541 
	C551.690857,1035.133179 496.314758,1002.110535 440.930695,969.101196 
	C351.128265,915.578247 261.317749,862.068848 171.516113,808.544556 
	C160.228500,801.816833 160.265869,796.489258 171.394699,789.830627 
	C284.055054,722.422791 396.699524,654.988342 509.342224,587.550964 
	C651.261658,502.586182 793.175232,417.611633 935.388794,332.428833 
z"/>
</svg>